# AST/ASF file generated using VICON BodyLanguage
# -----------------------------------------------
:version 1.10
:name VICON
:units
  mass 1.0
  length 0.45
  angle deg
:documentation
   .ast/.asf automatically generated from VICON data using
   VICON BodyBuilder and BodyLanguage model FoxedUp or BRILLIANT.MOD
:root
   order TX TY TZ RX RY RZ
   axis XYZ
   position 0 0 0  
   orientation 0 0 0 
:bonedata
  begin
     id 1 
     name lhipjoint
     direction 0.567725 -0.736092 0.368589 
     length 2.42353 
     axis 0 0 0  XYZ
  end
  begin
     id 2 
     name lfemur
     direction 0.34202 -0.939693 0  
     length 7.24894  
     axis 0 0 20  XYZ
    dof rx ry rz
    limits (-160.0 20.0)
           (-70.0 70.0)
           (-60.0 70.0)
  end
  begin
     id 3 
     name ltibia
     direction 0.34202 -0.939693 0   
     length 7.6997   
     axis 0 0 20   XYZ
    dof rx
    limits (-10.0 170.0)
  end
  begin
     id 4 
     name lfoot
     direction 0.100767 -0.276854 0.955614   
     length 2.37556   
     axis -90 7.62852e-016 20   XYZ
    dof rx rz
    limits (-45.0 90.0)
           (-70.0 20.0)
  end
  begin
     id 5 
     name ltoes
     direction 1.53592e-011 -4.21894e-011 1   
     length 1.18363   
     axis -90 7.62852e-016 20   XYZ
    dof rx
    limits (-90.0 20.0)
  end
  begin
     id 6 
     name rhipjoint
     direction -0.556459 -0.742938 0.372017   
     length 2.4012  
     axis 0 0 0  XYZ 
  end
  begin
     id 7 
     name rfemur
     direction -0.34202 -0.939693 0   
     length 7.5119   
     axis 0 0 -20   XYZ
    dof rx ry rz
    limits (-160.0 20.0)
           (-70.0 70.0)
           (-70.0 60.0)
  end
  begin
     id 8 
     name rtibia
     direction -0.34202 -0.939693 0   
     length 7.50155   
     axis 0 0 -20   XYZ
    dof rx
    limits (-10.0 170.0)
 end
 begin
     id 9 
     name rfoot
     direction -0.118427 -0.325376 0.938139   
     length 2.32487  
     axis -90 -7.62852e-016 -20   XYZ
    dof rx rz
    limits (-45.0 90.0)
           (-20.0 70.0)
  end
  begin
     id 10 
     name rtoes
     direction -1.53525e-011 -4.21868e-011 1   
     length 1.15233   
     axis -90 -7.62852e-016 -20   XYZ
    dof rx
    limits (-90.0 20.0)
  end
  begin
     id 11 
     name lowerback
     direction 0.0287568 0.999577 -0.00434502   
     length 2.15243   
     axis 0 0 0   XYZ
    dof rx ry rz
    limits (-20.0 45.0)
           (-30.0 30.0)
           (-30.0 30.0)
  end
  begin
     id 12 
     name upperback
     direction 0.0294009 0.99956 0.00404628   
     length 2.15427   
     axis 0 0 0   XYZ
    dof rx ry rz
    limits (-20.0 45.0)
           (-30.0 30.0)
           (-30.0 30.0)
  end
  begin
     id 13 
     name thorax
     direction 0.0151014 0.999868 0.0059419   
     length 2.14898   
     axis 0 0 0   XYZ
    dof rx ry rz
    limits (-20.0 45.0)
           (-30.0 30.0)
           (-30.0 30.0)
  end
  begin
     id 14 
     name lowerneck
     direction -0.0249197 0.989906 0.139515   
     length 1.6861   
     axis 0 0 0   XYZ
    dof rx ry rz
    limits (-20.0 45.0)
           (-30.0 30.0)
           (-30.0 30.0)
  end
  begin
     id 15 
     name upperneck
     direction 0.0438463 0.988795 -0.142693   
     length 1.71276   
     axis 0 0 0   XYZ
    dof rx ry rz
    limits (-20.0 45.0)
           (-30.0 30.0)
           (-30.0 30.0)
  end
  begin
     id 16
     name head
     direction 0.0148499 0.997845 -0.0639186  
     length 1.7209  
     axis 0 0 0   XYZ
    dof rx ry rz
    limits (-20.0 45.0)
           (-30.0 30.0)
           (-30.0 30.0)
  end
  begin
     id 17 
     name lclavicle
     direction 0.940298 0.323464 -0.105876  
     length 3.9048  
     axis 0 0 0   XYZ
    dof ry rz
    limits (-20.0 10.0)
           (0.0 20.0)
  end
  begin
     id 18 
     name lhumerus
     direction 1 -4.48954e-011 -4.9675e-028   
     length 4.6851   
     axis 180 -30 -90   XYZ
    dof rx ry rz
    limits (-60.0 90.0)
           (-90.0 90.0)
           (-90.0 90.0)
  end
  begin
     id 19
     name lradius
     direction 1 -4.48992e-011 -1.03359e-026   
     length 3.39626   
     axis 180 -30 -90   XYZ
    dof rx
    limits (-10.0 170.0)
  end
  begin
     id 20
     name lwrist
     direction 1 -4.48906e-011 -1.67336e-026   
     length 1.69813   
     axis 9.90442e-015 90 90   XYZ
    dof ry
    limits (-180.0 0.0)
 end
  begin
     id 21 
     name lhand
     direction 1 -4.49006e-011 -3.34673e-026   
     length 0.486078   
     axis 2.1355e-014 90 90   XYZ
    dof rx rz
    limits (-90.0 90.0)
           (-45.0 45.0)
  end
  begin
     id 22 
     name lfingers
     direction 1 -4.48992e-011 -6.69345e-026   
     length 0.391889   
     axis 4.27099e-014 90 90   XYZ
    dof rx
    limits (0.0 90.0)
  end
  begin
     id 23
     name lthumb
     direction 0.707107 -6.34926e-011 0.707107   
     length 0.562676   
     axis -90 45 2.85299e-015   XYZ
    dof rx rz
    limits (-45.0 45.0)
           (-45.0 45.0)
  end
  begin
     id 24 
     name rclavicle
     direction -0.882459 0.414895 -0.221648   
     length 3.44646  
     axis 0 0 0   XYZ 
    dof ry rz
    limits (-10.0 20.0)
           (-20.0 0.0)
  end
  begin
     id 25 
     name rhumerus
     direction -1 -4.48962e-011 -2.37984e-027  
     length 5.55576   
     axis 180 30 90   XYZ
    dof rx ry rz
    limits (-90.0 60.0)
           (-90.0 90.0)
           (-90.0 90.0)
  end
  begin
     id 26 
     name rradius
     direction -1 -4.48982e-011 -6.86791e-027   
     length 3.32774   
     axis 180 30 90   XYZ
    dof rx
    limits (-10.0 170.0)
  end
  begin
     id 27 
     name rwrist
     direction -1 -4.48961e-011 -1.67336e-026   
     length 1.66387   
     axis 9.90442e-015 -90 -90   XYZ
    dof ry
    limits (-180.0 0.0)
  end
  begin
     id 28
     name rhand
     direction -1 -4.4897e-011 -3.34673e-026   
     length 0.507628   
     axis 2.1355e-014 -90 -90   XYZ
    dof rx rz
    limits (-90.0 90.0)
           (-45.0 45.0)
  end
  begin
     id 29
     name rfingers
     direction -1 -4.48854e-011 -6.69345e-026   
     length 0.409263   
     axis 4.27099e-014 -90 -90   XYZ
    dof rx
    limits (0.0 90.0)
  end
  begin
     id 30
     name rthumb
     direction -0.707107 -6.34913e-011 0.707107   
     length 0.587622   
     axis -90 -45 -2.85299e-015   XYZ
    dof rx rz
    limits (-45.0 45.0)
           (-45.0 45.0)
  end
:hierarchy
  begin
    root lhipjoint rhipjoint lowerback
    lhipjoint lfemur
    lfemur ltibia
    ltibia lfoot
    lfoot ltoes
    rhipjoint rfemur
    rfemur rtibia
    rtibia rfoot
    rfoot rtoes
    lowerback upperback
    upperback thorax
    thorax lowerneck lclavicle rclavicle
    lowerneck upperneck
    upperneck head
    lclavicle lhumerus
    lhumerus lradius
    lradius lwrist
    lwrist lhand lthumb
    lhand lfingers
    rclavicle rhumerus
    rhumerus rradius
    rradius rwrist
    rwrist rhand rthumb
    rhand rfingers
  end

#!OML:ASF E:\motion texture\Top Level 1\Subject 1\Session 1\male.ASF
:FULLY-SPECIFIED
:DEGREES
48
root 26.0959 17.7538 5.46765 53.6 -85.2164 -42.097
lowerback 0.0715007 -1.73498 3.5573
upperback 0.535648 -2.47635 5.39922
thorax 0.604246 -1.29253 3.55261
lowerneck -10.4355 -5.63026 -6.2065
upperneck 18.1231 -7.74411 4.53618
head 7.72154 -3.78793 1.72843
rclavicle -1.31198e-014 4.6118e-014
rhumerus -55.0277 -33.0262 -42.5659
rradius 15.598
rwrist 28.3645
rhand -9.14566 -25.6812
rfingers 7.12502
rthumb 16.8062 -54.9738
lclavicle -1.31198e-014 4.6118e-014
lhumerus -61.0365 46.8044 38.5089
lradius 11.0781
lwrist -74.2694
lhand -5.70703 20.6981
lfingers 7.12502
lthumb 20.114 49.6769
rfemur -31.868 2.2019 22.8566
rtibia 21.6787
rfoot 0.97462 -14.3803
rtoes 19.8924
lfemur -4.38876 -5.8817 -15.4432
ltibia 36.7952
lfoot 11.0355 -6.78729
ltoes -16.554
49
root 25.9356 17.7726 5.44461 55.3037 -84.9189 -43.8769
lowerback 0.124658 -1.70884 3.85111
upperback 0.556209 -2.44823 5.52723
thorax 0.58873 -1.28087 3.52316
lowerneck -10.3985 -5.65756 -6.22981
upperneck 18.0444 -7.76393 4.48865
head 7.68932 -3.80311 1.71618
rclavicle 7.95139e-015 6.36111e-015
rhumerus -55.6242 -33.2746 -42.0035
rradius 15.6353
rwrist 28.1089
rhand -8.9843 -25.838
rfingers 7.12502
rthumb 16.9615 -55.1174
lclavicle 7.95139e-015 6.36111e-015
lhumerus -61.0558 45.844 38.7076
lradius 11.1882
lwrist -73.2731
lhand -5.1622 20.3434
lfingers 7.12502
lthumb 20.6376 49.2663
rfemur -31.1485 2.2259 23.4236
rtibia 21.6334
rfoot 0.441207 -14.3213
rtoes 19.6414
lfemur -5.48651 -5.64518 -14.8508
ltibia 38.7564
lfoot 13.2251 -6.86119
ltoes -14.1058
50
root 25.7782 17.7893 5.42193 57.0341 -84.6127 -45.7242
lowerback 0.212308 -1.67552 4.14993
upperback 0.58852 -2.40884 5.65768
thorax 0.565758 -1.26384 3.49464
lowerneck -10.3385 -5.68957 -6.26626
upperneck 17.9389 -7.79132 4.45963
head 7.64595 -3.82143 1.71218
rclavicle 1.15295e-014 -3.02153e-014
rhumerus -56.1735 -33.6013 -41.4176
rradius 15.6398
rwrist 27.9715
rhand -8.92002 -26.1303
rfingers 7.12502
rthumb 17.0234 -55.4044
lclavicle 1.15295e-014 -3.02153e-014
lhumerus -61.1234 45.0186 38.8074
lradius 11.2913
lwrist -72.4357
lhand -4.66419 20.0672
lfingers 7.12502
lthumb 21.116 48.9373
rfemur -30.3926 2.24198 24.0165
rtibia 21.5734
rfoot -0.0654293 -14.2561
rtoes 19.3304
lfemur -6.57587 -5.38576 -14.2605
ltibia 40.7324
lfoot 15.0224 -6.9367
ltoes -11.8861
51
root 25.6233 17.8041 5.39959 58.759 -84.3035 -47.5951
lowerback 0.319755 -1.63457 4.44617
upperback 0.630319 -2.35818 5.78886
thorax 0.541579 -1.24136 3.46897
lowerneck -10.2607 -5.72847 -6.31619
upperneck 17.8098 -7.82925 4.44953
head 7.59365 -3.84417 1.71614
rclavicle 2.50469e-014 -1.09729e-013
rhumerus -56.6685 -33.9986 -40.8175
rradius 15.6025
rwrist 28.0003
rhand -8.94248 -26.4756
rfingers 7.12502
rthumb 17.0018 -55.7516
lclavicle 2.50469e-014 -1.09729e-013
lhumerus -61.252 44.3429 38.7804
lradius 11.3818
lwrist -71.7846
lhand -4.21737 19.8705
lfingers 7.12502
lthumb 21.5452 48.6921
rfemur -29.6121 2.2633 24.6216
rtibia 21.5092
rfoot -0.568446 -14.1921
rtoes 19.0401
lfemur -7.65868 -5.1064 -13.6771
ltibia 42.7058
lfoot 16.3507 -6.96078
ltoes -10.0774
52
root 25.4702 17.8173 5.37755 60.4592 -83.9976 -49.4535
lowerback 0.423745 -1.58296 4.73645
upperback 0.683538 -2.29404 5.91641
thorax 0.531225 -1.21207 3.44259
lowerneck -10.1774 -5.77603 -6.37899
upperneck 17.6566 -7.87926 4.45885
head 7.53469 -3.87167 1.72761
rclavicle -4.37326e-015 6.20208e-014
rhumerus -57.1116 -34.4903 -40.1853
rradius 15.5098
rwrist 28.2524
rhand -9.04072 -26.8524
rfingers 7.12502
rthumb 16.9072 -56.1365
lclavicle -4.37326e-015 6.20208e-014
lhumerus -61.4924 43.8815 38.5244
lradius 11.4509
lwrist -71.4189
lhand -3.824 19.7299
lfingers 7.12502
lthumb 21.923 48.5077
rfemur -28.824 2.31908 25.2241
rtibia 21.4437
rfoot -1.07032 -14.1532
rtoes 18.779
lfemur -8.75038 -4.80763 -13.1048
ltibia 44.6752
lfoot 17.1254 -6.8789
ltoes -8.86436
53
root 25.3186 17.8296 5.3555 62.0421 -83.7098 -51.1966
lowerback 0.519621 -1.52149 5.00148
upperback 0.738275 -2.21664 6.03361
thorax 0.527599 -1.17594 3.41925
lowerneck -10.0821 -5.83053 -6.44911
upperneck 17.485 -7.94001 4.48252
head 7.46919 -3.90362 1.74435
rclavicle 1.11319e-014 -4.13472e-014
rhumerus -57.509 -35.0545 -39.5312
rradius 15.3606
rwrist 28.7362
rhand -9.21257 -27.2063
rfingers 7.12502
rthumb 16.7418 -56.5044
lclavicle 1.11319e-014 -4.13472e-014
lhumerus -61.7916 43.5783 38.1163
lradius 11.5039
lwrist -71.2564
lhand -3.48536 19.6361
lfingers 7.12502
lthumb 22.2481 48.3755
rfemur -28.0376 2.39895 25.8049
rtibia 21.3795
rfoot -1.57273 -14.1329
rtoes 18.54
lfemur -9.85674 -4.49483 -12.5635
ltibia 46.6323
lfoot 17.2897 -6.66458
ltoes -8.37297
54
root 25.1685 17.8414 5.33363 63.412 -83.458 -52.7165
lowerback 0.599056 -1.45056 5.22541
upperback 0.789933 -2.12633 6.13013
thorax 0.530754 -1.13287 3.39672
lowerneck -9.97609 -5.89193 -6.5205
upperneck 17.2983 -8.0127 4.52074
head 7.39844 -3.94022 1.76526
rclavicle 6.36111e-015 -4.29375e-014
rhumerus -57.8601 -35.6841 -38.8723
rradius 15.1608
rwrist 29.4488
rhand -9.44042 -27.5171
rfingers 7.12502
rthumb 16.5225 -56.8336
lclavicle 6.36111e-015 -4.29375e-014
lhumerus -62.1511 43.4371 37.5404
lradius 11.5379
lwrist -71.3086
lhand -3.20591 19.5745
lfingers 7.12502
lthumb 22.5163 48.2816
rfemur -27.263 2.50854 26.3343
rtibia 21.3034
rfoot -2.05606 -14.1458
rtoes 18.2887
lfemur -10.988 -4.17153 -12.078
ltibia 48.5642
lfoot 16.8867 -6.31592
ltoes -8.50584
55
root 25.0193 17.8529 5.31194 64.5502 -83.2579 -53.9871
lowerback 0.657019 -1.37039 5.38953
upperback 0.834497 -2.02332 6.20326
thorax 0.539806 -1.08291 3.38247
lowerneck -9.8692 -5.96039 -6.59158
upperneck 17.1065 -8.09707 4.57001
head 7.32726 -3.98144 1.78861
rclavicle -1.03368e-014 -2.54444e-014
rhumerus -58.1423 -36.342 -38.2579
rradius 14.9266
rwrist 30.3421
rhand -9.71289 -27.8232
rfingers 7.12502
rthumb 16.2601 -57.1613
lclavicle -1.03368e-014 -2.54444e-014
lhumerus -62.5947 43.4681 36.767
lradius 11.5511
lwrist -71.6047
lhand -2.99528 19.5742
lfingers 7.12502
lthumb 22.7185 48.2568
rfemur -26.5101 2.64605 26.7936
rtibia 21.2202
rfoot -2.52328 -14.1952
rtoes 18.029
lfemur -12.1458 -3.83595 -11.6674
ltibia 50.4426
lfoot 16.0271 -5.8571
ltoes -9.07021
56
root 24.8714 17.8645 5.29048 65.4597 -83.1144 -55.0145
lowerback 0.693472 -1.28398 5.48972
upperback 0.872595 -1.91168 6.25206
thorax 0.555416 -1.02804 3.3778
lowerneck -9.74844 -6.02907 -6.6597
upperneck 16.9072 -8.18416 4.62585
head 7.25174 -4.02358 1.81389
rclavicle -1.98785e-015 1.59028e-014
rhumerus -58.3324 -37.006 -37.7279
rradius 14.6677
rwrist 31.3842
rhand -10.0321 -28.1273
rfingers 7.12502
rthumb 15.9528 -57.4904
lclavicle -1.98785e-015 1.59028e-014
lhumerus -63.0977 43.6402 35.8453
lradius 11.5502
lwrist -72.0827
lhand -2.86112 19.6017
lfingers 7.12502
lthumb 22.8472 48.2684
rfemur -25.7595 2.80399 27.1767
rtibia 21.0994
rfoot -2.95996 -14.2778
rtoes 17.7678
lfemur -13.3238 -3.49247 -11.3401
ltibia 52.2377
lfoot 14.8701 -5.32482
ltoes -9.83094
57
root 24.7244 17.8761 5.26956 66.1878 -83.0275 -55.8512
lowerback 0.718376 -1.19532 5.52387
upperback 0.903694 -1.796 6.2816
thorax 0.571528 -0.970771 3.3895
lowerneck -9.62783 -6.09777 -6.72278
upperneck 16.7154 -8.27295 4.68239
head 7.17885 -4.06633 1.83841
rclavicle 3.57812e-015 -5.08889e-014
rhumerus -58.3983 -37.6424 -37.3308
rradius 14.4041
rwrist 32.5223
rhand -10.3596 -28.4308
rfingers 7.12502
rthumb 15.6373 -57.8188
lclavicle 3.57812e-015 -5.08889e-014
lhumerus -63.7536 44.0002 34.6617
lradius 11.5276
lwrist -72.8373
lhand -2.82777 19.6954
lfingers 7.12502
lthumb 22.8792 48.3581
rfemur -25.0078 2.96645 27.4885
rtibia 20.948
rfoot -3.37293 -14.3771
rtoes 17.5173
lfemur -14.5067 -3.13684 -11.0944
ltibia 53.9168
lfoot 13.5412 -4.75656
ltoes -10.697
